<svg width="257" height="257" viewBox="0 0 257 257" fill="none" xmlns="http://www.w3.org/2000/svg">
<rect x="0.49765" y="0.31601" width="256" height="256" rx="30" fill="#F6F6F6"/>
<path d="M140.071 40.6594C187.08 44.2413 210.192 89.1901 216.057 112.761C200.405 81.7417 165.663 69.9553 150.248 67.9395C140.231 66.0672 124.478 60.1888 125.153 49.8141C125.587 43.1517 133.414 40.1522 140.071 40.6594Z" fill="#B1C900"/>
<path d="M113.124 61.4692C111.521 50.6067 119.314 42.1155 124.018 38.9171C102.79 44.0812 102.751 61.0258 106.239 69.9054C109.728 78.7849 143.977 109.863 127.17 153.31C113.724 188.067 77.5922 187.877 61.2074 183.437C67.867 196.228 91.1441 220.921 130.975 217.369C178.227 211.027 193.319 182.04 196.938 153.31C200.556 124.579 179.724 96.8032 157.931 87.3474C138.608 78.9631 126.889 79.214 117.836 70.3148C115.401 67.9213 113.622 64.847 113.124 61.4692Z" fill="#005998"/>
<path d="M83.8348 150.163C70.0789 155.322 42.2412 154.833 40.938 111.61C43.7061 72.2183 86.188 48.5691 108.321 41.1743C102.421 44.6526 92.0341 58.6138 97.6812 86.6325C110.93 125.294 93.9708 145.095 83.8348 150.163Z" fill="#B1C900"/>
</svg>
