<svg width="225" height="231" viewBox="0 0 225 231" fill="none" xmlns="http://www.w3.org/2000/svg">
<path d="M127.181 3.18105C187.477 7.77539 217.122 65.4291 224.645 95.6623C204.569 55.8753 160.006 40.7575 140.234 38.1719C127.386 35.7703 107.181 28.2304 108.046 14.9233C108.603 6.37782 118.642 2.53043 127.181 3.18105Z" fill="#B1C900"/>
<path d="M92.6168 29.8727C90.5608 15.9399 100.556 5.0485 106.59 0.946045C79.3618 7.56981 79.312 29.3039 83.7864 40.6933C88.2608 52.0827 132.191 91.9455 110.633 147.672C93.386 192.253 47.0421 192.009 26.026 186.315C34.568 202.721 64.4245 234.394 115.514 229.838C176.122 221.703 195.48 184.524 200.121 147.672C204.762 110.821 178.042 75.194 150.089 63.0653C125.304 52.3112 110.273 52.633 98.6606 41.2185C95.5373 38.1485 93.2561 34.2052 92.6168 29.8727Z" fill="#005998"/>
<path d="M55.0491 143.636C37.405 150.253 1.69893 149.626 0.0273895 94.1865C3.5779 43.6601 58.0674 13.3263 86.4565 3.84146C78.8893 8.30287 65.5659 26.2103 72.8093 62.1485C89.8033 111.738 68.05 137.136 55.0491 143.636Z" fill="#B1C900"/>
</svg>
