<svg width="129" height="33" viewBox="0 0 129 33" fill="none" xmlns="http://www.w3.org/2000/svg">
<path d="M44.064 19.3223C42.7104 19.3223 41.4088 19.1054 40.1593 18.6715C38.9272 18.2203 37.9727 17.6477 37.2959 16.9535L38.0508 15.4697C38.6929 16.0945 39.552 16.6238 40.6279 17.0576C41.7212 17.4741 42.8666 17.6824 44.064 17.6824C45.2094 17.6824 46.1378 17.5435 46.8493 17.2659C47.5782 16.9709 48.1075 16.5804 48.4372 16.0945C48.7843 15.6086 48.9578 15.0706 48.9578 14.4806C48.9578 13.769 48.7496 13.1964 48.3331 12.7625C47.9339 12.3287 47.4046 11.9903 46.7452 11.7473C46.0857 11.487 45.3569 11.2614 44.5586 11.0705C43.7603 10.8796 42.962 10.68 42.1637 10.4718C41.3655 10.2462 40.6279 9.95116 39.9511 9.58672C39.2916 9.22229 38.7537 8.74506 38.3372 8.15502C37.938 7.54763 37.7385 6.75802 37.7385 5.7862C37.7385 4.88379 37.9727 4.05947 38.4413 3.31325C38.9272 2.54967 39.6648 1.94228 40.6539 1.49108C41.6431 1.02252 42.91 0.788243 44.4545 0.788243C45.4784 0.788243 46.4936 0.935752 47.5001 1.23077C48.5066 1.50843 49.3743 1.8989 50.1032 2.40216L49.4524 3.93799C48.6715 3.41738 47.8385 3.03559 46.9534 2.79263C46.0857 2.54968 45.2441 2.4282 44.4284 2.4282C43.3351 2.4282 42.4327 2.57571 41.7212 2.87072C41.0097 3.16574 40.4804 3.56488 40.1333 4.06815C39.8036 4.55406 39.6387 5.10939 39.6387 5.73413C39.6387 6.44565 39.8383 7.01833 40.2374 7.45218C40.6539 7.88603 41.1919 8.22444 41.8514 8.46739C42.5282 8.71035 43.2657 8.92727 44.064 9.11817C44.8623 9.30906 45.6519 9.51731 46.4328 9.74291C47.2311 9.96851 47.96 10.2635 48.6194 10.628C49.2962 10.975 49.8342 11.4436 50.2334 12.0336C50.6498 12.6237 50.8581 13.3959 50.8581 14.3504C50.8581 15.2355 50.6151 16.0598 50.1292 16.8233C49.6433 17.5696 48.8971 18.177 47.8906 18.6455C46.9014 19.0967 45.6259 19.3223 44.064 19.3223ZM56.7732 9.09214H66.4047V10.7321H56.7732V9.09214ZM56.9815 17.5002H67.9405V19.1661H55.0552V0.944428H67.5501V2.61041H56.9815V17.5002ZM72.4685 19.1661V0.944428H79.2886C80.8331 0.944428 82.1607 1.19606 83.2714 1.69933C84.382 2.18524 85.2324 2.89675 85.8224 3.83387C86.4298 4.75363 86.7335 5.87297 86.7335 7.19187C86.7335 8.47607 86.4298 9.58673 85.8224 10.5238C85.2324 11.4436 84.382 12.1551 83.2714 12.6584C82.1607 13.1443 80.8331 13.3873 79.2886 13.3873H73.5358L74.3948 12.5022V19.1661H72.4685ZM84.9113 19.1661L80.2258 12.5543H82.3082L87.0198 19.1661H84.9113ZM74.3948 12.6584L73.5358 11.7473H79.2366C81.0587 11.7473 82.4384 11.3482 83.3755 10.5499C84.33 9.75159 84.8072 8.63225 84.8072 7.19187C84.8072 5.73414 84.33 4.60612 83.3755 3.80784C82.4384 3.00956 81.0587 2.61041 79.2366 2.61041H73.5358L74.3948 1.69933V12.6584ZM91.28 19.1661V0.944428H98.1001C99.6446 0.944428 100.972 1.19606 102.083 1.69933C103.194 2.18524 104.044 2.89675 104.634 3.83387C105.241 4.75363 105.545 5.87297 105.545 7.19187C105.545 8.47607 105.241 9.58673 104.634 10.5238C104.044 11.4436 103.194 12.1551 102.083 12.6584C100.972 13.1443 99.6446 13.3873 98.1001 13.3873H92.3473L93.2063 12.5022V19.1661H91.28ZM103.723 19.1661L99.0372 12.5543H101.12L105.831 19.1661H103.723ZM93.2063 12.6584L92.3473 11.7473H98.048C99.8702 11.7473 101.25 11.3482 102.187 10.5499C103.141 9.75159 103.619 8.63225 103.619 7.19187C103.619 5.73414 103.141 4.60612 102.187 3.80784C101.25 3.00956 99.8702 2.61041 98.048 2.61041H92.3473L93.2063 1.69933V12.6584ZM107.176 19.1661L115.506 0.944428H117.406L125.736 19.1661H123.706L116.053 2.06376H116.833L109.18 19.1661H107.176ZM110.456 14.2983L111.029 12.7365H121.623L122.196 14.2983H110.456Z" fill="#B1C900"/>
<path d="M36.9813 32.7693V26.0017H39.7657C40.3651 26.0017 40.8775 26.0984 41.3029 26.2917C41.7347 26.4851 42.0667 26.7623 42.2987 27.1232C42.5307 27.4841 42.6467 27.9127 42.6467 28.409C42.6467 28.9053 42.5307 29.334 42.2987 29.6949C42.0667 30.0558 41.7347 30.333 41.3029 30.5263C40.8775 30.7197 40.3651 30.8164 39.7657 30.8164H37.6774L38.2381 30.2266V32.7693H36.9813ZM38.2381 30.362L37.6774 29.7529H39.7077C40.262 29.7529 40.6777 29.6369 40.9548 29.4048C41.2384 29.1664 41.3802 28.8344 41.3802 28.409C41.3802 27.9772 41.2384 27.6453 40.9548 27.4132C40.6777 27.1812 40.262 27.0652 39.7077 27.0652H37.6774L38.2381 26.4464V30.362ZM43.9019 32.7693V26.0017H45.1587V31.7058H48.6972V32.7693H43.9019ZM48.7418 32.7693L51.7872 26.0017H53.0247L56.0798 32.7693H54.7649L52.1449 26.6688H52.6476L50.0373 32.7693H48.7418ZM50.1436 31.2031L50.482 30.217H54.1365L54.4749 31.2031H50.1436ZM56.9405 32.7693V26.0017H57.975L62.2192 31.2128H61.7068V26.0017H62.954V32.7693H61.9195L57.6752 27.5583H58.1877V32.7693H56.9405ZM67.9385 32.866C67.41 32.866 66.9234 32.779 66.4787 32.605C66.0339 32.4309 65.6472 32.1892 65.3185 31.8799C64.9898 31.564 64.7352 31.1967 64.5547 30.7777C64.3743 30.3523 64.284 29.8883 64.284 29.3855C64.284 28.8828 64.3743 28.4219 64.5547 28.003C64.7352 27.5776 64.9898 27.2102 65.3185 26.9008C65.6472 26.585 66.0339 26.3401 66.4787 26.1661C66.9234 25.992 67.4068 25.905 67.9289 25.905C68.4574 25.905 68.9408 25.992 69.3791 26.1661C69.8238 26.3401 70.2105 26.585 70.5392 26.9008C70.868 27.2102 71.1226 27.5776 71.303 28.003C71.4835 28.4219 71.5737 28.8828 71.5737 29.3855C71.5737 29.8883 71.4835 30.3523 71.303 30.7777C71.1226 31.2031 70.868 31.5705 70.5392 31.8799C70.2105 32.1892 69.8238 32.4309 69.3791 32.605C68.9408 32.779 68.4606 32.866 67.9385 32.866ZM67.9289 31.7638C68.2705 31.7638 68.5863 31.7058 68.8763 31.5898C69.1664 31.4738 69.4178 31.3095 69.6305 31.0968C69.8432 30.8776 70.0075 30.6262 70.1235 30.3426C70.246 30.0526 70.3072 29.7336 70.3072 29.3855C70.3072 29.0375 70.246 28.7216 70.1235 28.438C70.0075 28.148 69.8432 27.8966 69.6305 27.6839C69.4178 27.4648 69.1664 27.2972 68.8763 27.1812C68.5863 27.0652 68.2705 27.0072 67.9289 27.0072C67.5873 27.0072 67.2715 27.0652 66.9814 27.1812C66.6978 27.2972 66.4464 27.4648 66.2273 27.6839C66.0146 27.8966 65.847 28.148 65.7246 28.438C65.6086 28.7216 65.5505 29.0375 65.5505 29.3855C65.5505 29.7271 65.6086 30.0429 65.7246 30.333C65.847 30.623 66.0146 30.8776 66.2273 31.0968C66.44 31.3095 66.6914 31.4738 66.9814 31.5898C67.2715 31.7058 67.5873 31.7638 67.9289 31.7638ZM75.5779 32.7693V26.0017H78.5363C79.2711 26.0017 79.9156 26.1435 80.4699 26.4271C81.0242 26.7107 81.456 27.1039 81.7654 27.6066C82.0748 28.1093 82.2295 28.7023 82.2295 29.3855C82.2295 30.0623 82.0748 30.6552 81.7654 31.1644C81.456 31.6672 81.0242 32.0603 80.4699 32.3439C79.9156 32.6275 79.2711 32.7693 78.5363 32.7693H75.5779ZM76.8347 31.7058H78.4783C78.9875 31.7058 79.4258 31.6092 79.7931 31.4158C80.167 31.2224 80.4538 30.9517 80.6536 30.6037C80.8599 30.2556 80.963 29.8496 80.963 29.3855C80.963 28.915 80.8599 28.5089 80.6536 28.1673C80.4538 27.8193 80.167 27.5486 79.7931 27.3552C79.4258 27.1619 78.9875 27.0652 78.4783 27.0652H76.8347V31.7058ZM84.7255 28.8151H88.09V29.8496H84.7255V28.8151ZM84.8222 31.7155H88.6411V32.7693H83.5653V26.0017H88.5057V27.0555H84.8222V31.7155ZM94.8121 32.866C94.2835 32.866 93.7776 32.7919 93.2942 32.6436C92.8108 32.489 92.4273 32.2924 92.1437 32.0539L92.5787 31.0774C92.8494 31.2901 93.1846 31.4674 93.5842 31.6092C93.9838 31.751 94.3931 31.8219 94.8121 31.8219C95.1666 31.8219 95.4534 31.7832 95.6725 31.7058C95.8917 31.6285 96.0528 31.5254 96.1559 31.3965C96.259 31.2611 96.3106 31.1096 96.3106 30.9421C96.3106 30.7358 96.2365 30.5715 96.0882 30.449C95.94 30.3201 95.7466 30.2202 95.5082 30.1493C95.2761 30.0719 95.0151 30.001 94.725 29.9366C94.4414 29.8721 94.1546 29.798 93.8646 29.7142C93.581 29.624 93.32 29.5112 93.0815 29.3758C92.8494 29.234 92.6593 29.0471 92.5111 28.8151C92.3628 28.5831 92.2887 28.2866 92.2887 27.9256C92.2887 27.5583 92.3854 27.2231 92.5787 26.9202C92.7785 26.6108 93.0783 26.3659 93.4779 26.1854C93.8839 25.9985 94.3963 25.905 95.0151 25.905C95.4211 25.905 95.824 25.9566 96.2236 26.0597C96.6232 26.1628 96.9713 26.3111 97.2677 26.5044L96.8713 27.4809C96.5684 27.3004 96.2558 27.1683 95.9335 27.0845C95.6113 26.9943 95.3019 26.9492 95.0054 26.9492C94.6574 26.9492 94.3738 26.9911 94.1546 27.0749C93.9419 27.1586 93.784 27.2682 93.6809 27.4036C93.5842 27.5389 93.5359 27.6936 93.5359 27.8676C93.5359 28.0739 93.6068 28.2415 93.7486 28.3704C93.8968 28.4928 94.087 28.5895 94.319 28.6604C94.5575 28.7313 94.8217 28.8022 95.1118 28.8731C95.4018 28.9376 95.6886 29.0117 95.9722 29.0955C96.2623 29.1793 96.5233 29.2888 96.7553 29.4242C96.9938 29.5595 97.1839 29.7432 97.3257 29.9753C97.474 30.2073 97.5481 30.5006 97.5481 30.8551C97.5481 31.216 97.4482 31.5512 97.2484 31.8605C97.055 32.1635 96.7553 32.4084 96.3493 32.5953C95.9432 32.7758 95.4308 32.866 94.8121 32.866ZM97.8372 32.7693L100.883 26.0017H102.12L105.175 32.7693H103.86L101.24 26.6688H101.743L99.1328 32.7693H97.8372ZM99.2391 31.2031L99.5775 30.217H103.232L103.57 31.2031H99.2391ZM108.804 32.866C107.876 32.866 107.148 32.605 106.619 32.0829C106.097 31.5608 105.836 30.8067 105.836 29.8206V26.0017H107.093V29.7722C107.093 30.4683 107.241 30.9743 107.538 31.2901C107.841 31.6059 108.266 31.7638 108.814 31.7638C109.362 31.7638 109.784 31.6059 110.081 31.2901C110.377 30.9743 110.525 30.4683 110.525 29.7722V26.0017H111.763V29.8206C111.763 30.8067 111.499 31.5608 110.97 32.0829C110.448 32.605 109.726 32.866 108.804 32.866ZM108.002 25.4506L109.307 24.1261H110.728L109.046 25.4506H108.002ZM113.523 32.7693V26.0017H116.481C117.216 26.0017 117.861 26.1435 118.415 26.4271C118.969 26.7107 119.401 27.1039 119.711 27.6066C120.02 28.1093 120.175 28.7023 120.175 29.3855C120.175 30.0623 120.02 30.6552 119.711 31.1644C119.401 31.6672 118.969 32.0603 118.415 32.3439C117.861 32.6275 117.216 32.7693 116.481 32.7693H113.523ZM114.78 31.7058H116.423C116.933 31.7058 117.371 31.6092 117.738 31.4158C118.112 31.2224 118.399 30.9517 118.599 30.6037C118.805 30.2556 118.908 29.8496 118.908 29.3855C118.908 28.915 118.805 28.5089 118.599 28.1673C118.399 27.8193 118.112 27.5486 117.738 27.3552C117.371 27.1619 116.933 27.0652 116.423 27.0652H114.78V31.7058ZM122.671 28.8151H126.035V29.8496H122.671V28.8151ZM122.767 31.7155H126.586V32.7693H121.51V26.0017H126.451V27.0555H122.767V31.7155Z" fill="#fafafa"/>
<path d="M17.1723 1.31399C25.2743 1.97433 29.2593 9.98294 30.2716 14.1855C27.566 8.64675 21.5603 6.54217 18.8956 6.18224C17.1605 5.84723 14.4299 4.79398 14.5585 2.93443C14.6395 1.76218 16.0011 1.21854 17.1723 1.31399Z" fill="#B1C900"/>
<path d="M12.4845 5.06899C12.1817 3.10925 13.5424 1.57523 14.3614 1C10.6919 1.9221 10.6852 4.94774 11.2882 6.53327C11.8912 8.1188 17.8117 13.6682 14.9063 21.4259C12.5819 27.6321 6.33616 27.5982 3.50381 26.8054C4.65502 29.0893 8.67878 33.4986 15.5641 32.8644C23.7322 31.7319 26.3411 26.5561 26.9666 21.4259C27.592 16.2958 23.991 11.3361 20.2238 9.6477C16.8674 8.14341 14.8383 8.19587 13.2703 6.58336C12.8658 6.16748 12.5731 5.64228 12.4845 5.06899Z" fill="#fafafa"/>
<path d="M7.41525 20.8641C5.03735 21.7852 0.225243 21.6979 -3.05176e-05 13.9801C0.478471 6.94626 7.82202 2.72347 11.648 1.40306C10.6282 2.02414 8.83259 4.51705 9.80878 9.52006C12.0991 16.4234 9.16738 19.9591 7.41525 20.8641Z" fill="#B1C900"/>
</svg>
